<?xml version="1.0" encoding="UTF-8" standalone="no"?>
<svg id="svg4316" xmlns:rdf="http://www.w3.org/1999/02/22-rdf-syntax-ns#" xmlns="http://www.w3.org/2000/svg" xml:space="preserve" height="377.5" viewBox="0 0 764.30798 377.5" width="764.31" version="1.1" xmlns:cc="http://creativecommons.org/ns#" xmlns:dc="http://purl.org/dc/elements/1.1/"><g id="g4324" transform="matrix(1.25,0,0,-1.25,0,683.75)"><g id="g4328" fill="#1295df"><g id="g4330" clip-path="url(#clipPath4332)" fill="#1295df"><path id="path4336" d="m23.075 494.78v36.294h10.264v-35.109c0-13.002 4.8668-18.211 15.989-18.211 10.511 0 15.24 6.1478 15.24 17.133v36.187h9.4444v-35.344c0-16.201-8.0261-26.48-25.061-26.48-17.822 0-25.876 10.052-25.876 25.53"/><path id="path4338" d="m96.953 531.07h10.275l26.836-36.767c3.4456-4.8522 6.1536-10.045 6.25-10.045h0.2556s-0.4907 4.7148-0.4907 9.3392v37.472h9.234v-60.763h-9.234l-28.478 38.999c-2.8453 4.1496-5.4466 9.0062-5.4466 9.0062h-0.111s0.333-4.043 0.333-7.8202v-40.185h-9.4239v60.763"/><path id="path4340" d="m173.42 531.07h10.156v-60.763h-10.156v60.763z"/><path id="path4342" d="m200.6 531.07h10.749l15.367-39.847c1.7703-4.4841 3.561-10.271 3.561-10.392h0.2264c0 0.1212 1.7761 5.7753 3.5347 10.392l14.771 39.847h9.8242l-23.516-60.763h-9.9308l-24.587 60.763"/><path id="path4344" d="m275.31 531.07h37.114v-8.273h-26.966v-16.663h24.125v-8.0407h-24.125v-19.496h27.55v-8.2905h-37.699v60.763"/><path id="path4346" d="m352.49 504.34c8.511 0 12.167 3.2221 12.167 9.4809 0 6.3712-4.0036 9.3333-12.763 9.3333h-8.0334v-18.814h8.6293zm-18.782 26.731h19.016c14.187 0 22.339-5.7753 22.339-16.802 0-10.384-7.5514-14.989-16.672-15.957v-0.2176c1.3058-0.948 3.5639-3.2105 7.2242-8.2686l14.428-19.518h-11.713l-12.306 17.381c-6.0236 8.3898-7.4433 9.0909-11.099 9.0909h-1.0648v-26.472h-10.153v60.763"/><path id="path4348" d="m391.96 475.27 4.4958 7.2301c1.6535-1.1948 6.1273-4.9895 14.177-4.9895 7.2184 0 11.933 3.1988 11.933 8.5198 0 6.3712-5.7885 8.1634-14.641 12.281-7.8085 3.5551-14.421 7.937-14.421 17.511 0 10.63 9.0792 16.419 19.609 16.419 9.9396 0 15.014-3.1652 17.612-4.9573l-4.3658-7.2097c-2.2493 1.5366-6.8576 3.8984-12.89 3.8984-5.7913 0-10.043-2.4918-10.043-7.693 0-5.7885 5.083-7.5558 11.698-10.527 8.5111-3.7655 17.254-8.1255 17.254-19.26 0-10.641-8.5125-17.247-21.616-17.247-10.157 0-16.327 3.7743-18.803 6.0236"/><path id="path4350" d="m452.37 531.07h10.157v-60.763h-10.157v60.763z"/><path id="path4352" d="m498.21 522.67h-18.54v8.4059h47.391v-8.4059h-18.556v-52.357h-10.296v52.357"/><path id="path4354" d="m559.57 493.37-21.394 37.699h11.107l15.595-28.859h0.2425l15.363 28.859h9.9308l-20.688-37.699v-23.065h-10.156v23.065"/><path id="path4356" d="m19.642 291.73c0 16.917 11.584 31.443 32.15 31.443 8.1473 0 13.582-1.7746 18.329-4.8346l-4.8405-7.5719c-3.5624 2.3677-7.8187 3.8999-13.715 3.8999-13.838 0-21.052-9.5861-21.052-22.568 0-13.376 6.8532-23.427 21.278-23.427 6.8664 0 11.47 2.2698 15.018 4.8464l4.2679-7.195c-3.3244-2.841-10.41-6.158-19.638-6.158-20.675 0-31.798 14.679-31.798 31.566"/><path id="path4358" d="m120.7 282.74-7.2023 18.562c-2.0098 5.3239-3.7947 11.007-3.7947 11.007h-0.222s-1.9047-5.9286-3.7859-11.007l-7.0884-18.562h22.093zm-15.71 39.24h9.9307l24.705-60.75h-10.632l-5.2042 13.229h-28.251l-4.969-13.229h-10.061l24.481 60.75"/><path id="path4360" d="m154.5 321.98h10.417v-52.466h25.641v-8.2846h-36.058v60.75"/><path id="path4362" d="m207.92 321.98h10.172v-60.75h-10.172v60.75z"/><path id="path4364" d="m240.66 321.98h36.527v-8.2569h-26.354v-17.264h23.282v-8.1445h-23.282v-27.084h-10.173v60.75"/><path id="path4366" d="m343.62 291.5c0 12.538-6.9876 23.392-21.04 23.392-14.069 0-21.401-10.757-21.401-23.038 0-12.523 7.1205-23.291 21.166-23.291 14.064 0 21.275 10.519 21.275 22.938zm-53.311 0c0 16.66 11.713 31.671 32.036 31.671 20.339 0 32.049-14.654 32.049-31.317 0-16.674-11.475-31.691-31.814-31.691-20.33 0-32.271 14.679-32.271 31.338"/><path id="path4368" d="m388.42 295.26c8.5198 0 12.184 3.206 12.184 9.4648 0 6.3961-4.0416 9.3377-12.783 9.3377h-8.0276v-18.802h8.6265zm-18.823 26.716h19.067c14.178 0 22.333-5.7855 22.333-16.781 0-10.398-7.5719-14.996-16.683-15.935v-0.2512c1.3218-0.9435 3.5536-3.209 7.2271-8.2788l14.416-19.504h-11.689l-12.309 17.376c-6.0352 8.3825-7.455 9.126-11.111 9.126h-1.0546v-26.502h-10.197v60.75"/><path id="path4370" d="m430.83 321.98h10.283l26.854-36.761c3.4193-4.8361 6.1522-10.042 6.2486-10.042h0.2351s-0.4615 4.7207-0.4615 9.3363v37.466h9.2092v-60.75h-9.2092l-28.498 38.985c-2.8248 4.1774-5.435 9.012-5.435 9.012h-0.1022s0.3403-4.0284 0.3403-7.8099v-40.188h-9.4633v60.75"/><path id="path4372" d="m505.66 321.98h10.173v-60.75h-10.173v60.75z"/><path id="path4374" d="m571.62 282.74-7.2155 18.562c-2.001 5.3239-3.7771 11.007-3.7771 11.007h-0.2513s-1.8725-5.9286-3.7698-11.007l-7.0928-18.562h22.106zm-15.726 39.24h9.9307l24.717-60.75h-10.644l-5.2056 13.229h-28.259l-4.9529-13.229h-10.043l24.457 60.75"/><path id="path4376" d="m72.958 395.94c0 12.525-6.9716 23.412-21.045 23.412-14.056 0-21.4-10.766-21.4-23.054 0-12.544 7.0957-23.309 21.164-23.309 14.07 0 21.28 10.535 21.28 22.951zm-53.316 0c0 16.658 11.705 31.681 32.036 31.681 20.332 0 32.042-14.662 32.042-31.323s-11.467-31.698-31.806-31.698c-20.326 0-32.271 14.666-32.271 31.34"/><path id="path4378" d="m101.66 426.43h36.532v-8.2525h-26.367v-17.275h23.291v-8.1372h-23.291v-27.09h-10.164v60.754"/><path id="path4380" d="m0 349.49h164.92v93.344h-164.92v-93.344zm6.3712 86.973h152.18v-80.603h-152.18v80.603z"/><path id="path4382" d="m0 453.99h611.45v93.338h-611.45v-93.338zm6.3712 86.971h598.71v-80.6h-598.71v80.6z"/><path id="path4384" d="m0 245h611.45v93.337h-611.45v-93.34zm6.3712 86.97h598.71v-80.603h-598.71v80.603z"/></g></g></g></svg>
